<?xml version="1.0" standalone="no"?>
<!DOCTYPE svg PUBLIC "-//W3C//DTD SVG 20010904//EN"
 "http://www.w3.org/TR/2001/REC-SVG-20010904/DTD/svg10.dtd">
<svg version="1.0" xmlns="http://www.w3.org/2000/svg"
 width="1280.000000pt" height="1352.000000pt" viewBox="0 0 1280.000000 1352.000000"
 preserveAspectRatio="xMidYMid meet">

<g transform="translate(0.000000,1352.000000) scale(0.100000,-0.100000)"
fill="#000000" stroke="none">
<path d="M6343 13051 c-36 -23 -48 -60 -39 -129 40 -308 33 -968 -14 -1322 -5
-41 -10 -78 -10 -82 0 -5 24 -8 54 -8 54 0 55 0 59 33 l4 32 1 -33 c3 -62 27
-30 33 44 l5 69 2 -72 c1 -43 6 -73 13 -73 7 0 8 28 4 83 -3 45 -2 109 3 142
9 54 10 47 11 -77 1 -87 5 -139 12 -144 8 -4 9 50 4 195 -5 131 -4 201 2 201
6 0 12 -75 15 -191 5 -169 14 -230 31 -202 2 4 1 51 -4 103 -5 52 -11 185 -13
295 l-5 200 14 -185 c7 -102 18 -232 24 -289 6 -57 11 -109 11 -117 0 -8 5
-14 11 -14 8 0 10 17 6 58 -42 383 -55 951 -28 1232 19 194 18 207 -13 238
-22 22 -36 27 -93 30 -54 2 -74 -1 -100 -17z m31 -36 c-19 -29 -20 -42 -11
-300 4 -157 4 -175 -3 -87 -5 63 -14 147 -20 189 -17 124 -14 170 15 198 31
32 40 32 19 0z"/>
<path d="M6248 11443 c-78 -84 -86 -218 -17 -312 l29 -41 168 0 c155 0 170 2
190 20 34 32 54 78 59 139 7 71 -8 125 -48 179 l-31 42 -162 0 -162 0 -26 -27z
m2 -64 c-15 -51 -12 -151 5 -195 l16 -39 -20 25 c-43 53 -46 144 -9 226 16 33
20 25 8 -17z m391 -55 c13 -58 2 -118 -28 -159 -15 -19 -15 -19 -8 5 19 70 22
109 14 164 -6 33 -12 64 -15 70 -3 6 1 3 10 -8 8 -10 21 -43 27 -72z m-81 61
c0 -8 -7 -15 -15 -15 -8 0 -15 7 -15 15 0 8 7 15 15 15 8 0 15 -7 15 -15z m25
-95 c0 -8 -8 -16 -17 -18 -13 -2 -18 3 -18 18 0 15 5 20 18 18 9 -2 17 -10 17
-18z m-235 -5 c0 -8 -7 -15 -15 -15 -8 0 -15 7 -15 15 0 8 7 15 15 15 8 0 15
-7 15 -15z m138 -18 c2 -12 -3 -17 -17 -17 -12 0 -21 6 -21 13 0 31 32 34 38
4z m112 -47 c0 -13 -7 -20 -20 -20 -13 0 -20 7 -20 20 0 13 7 20 20 20 13 0
20 -7 20 -20z m-80 -5 c0 -8 -7 -15 -15 -15 -8 0 -15 7 -15 15 0 8 7 15 15 15
8 0 15 -7 15 -15z m-88 -37 c-9 -9 -15 -9 -23 -1 -7 7 -9 20 -5 29 6 16 8 16
23 1 13 -13 15 -19 5 -29z m64 1 c10 -17 -13 -36 -27 -22 -12 12 -4 33 11 33
5 0 12 -5 16 -11z m-128 -20 c4 -20 -28 -34 -39 -18 -11 18 1 40 20 37 9 -2
17 -10 19 -19z m175 -6 c9 -9 -13 -34 -24 -27 -14 8 -11 34 4 34 8 0 17 -3 20
-7z m-93 -13 c0 -12 -28 -25 -36 -17 -9 9 6 27 22 27 8 0 14 -5 14 -10z"/>
<path d="M5962 11153 c-66 -115 -204 -354 -307 -533 -103 -179 -235 -408 -294
-510 -60 -102 -128 -221 -153 -265 -25 -44 -83 -145 -130 -225 -46 -80 -164
-284 -262 -455 -98 -170 -201 -348 -229 -395 -27 -47 -63 -110 -80 -140 -16
-30 -46 -82 -67 -115 -20 -33 -75 -127 -122 -210 -71 -126 -163 -285 -326
-565 -24 -42 -19 -38 79 52 202 189 416 346 654 483 81 46 155 87 164 90 9 3
31 29 47 58 17 28 65 111 106 182 41 72 101 175 133 230 98 169 197 341 317
550 277 483 533 926 631 1094 l90 154 -6 106 c-11 192 -32 301 -71 365 -41 69
-60 141 -54 207 3 27 4 49 3 49 -2 0 -57 -93 -123 -207z m45 -154 c-14 -24
-116 -215 -227 -424 -111 -209 -253 -472 -315 -585 -62 -113 -127 -232 -145
-265 -42 -77 -120 -216 -370 -660 -112 -198 -244 -432 -293 -520 -117 -209
-155 -265 -196 -286 -19 -10 -37 -16 -39 -14 -6 6 44 103 118 230 29 50 98
171 155 270 56 99 173 304 260 455 87 151 211 367 275 480 64 113 151 264 192
335 41 72 118 204 170 295 106 182 234 405 353 608 42 73 79 131 82 129 2 -3
-7 -24 -20 -48z"/>
<path d="M6779 11313 c5 -67 -15 -142 -55 -209 -30 -49 -37 -75 -49 -164 -7
-58 -15 -154 -17 -215 l-3 -110 76 -130 c127 -217 318 -548 449 -775 67 -118
144 -251 170 -295 57 -97 144 -248 185 -320 17 -29 117 -204 224 -389 182
-313 197 -336 230 -348 20 -7 39 -11 44 -10 4 1 7 -3 7 -9 0 -6 7 -8 17 -5 10
4 14 4 10 0 -10 -10 70 -57 83 -49 6 4 9 2 8 -3 -2 -6 61 -53 139 -105 160
-106 331 -236 413 -311 30 -28 83 -78 119 -111 57 -53 62 -56 44 -25 -11 19
-106 184 -211 365 -104 182 -290 503 -412 715 -123 212 -291 504 -375 650 -84
146 -219 380 -300 520 -82 140 -165 284 -185 320 -34 59 -149 260 -489 848
-67 116 -123 212 -124 212 -1 0 0 -21 2 -47z"/>
<path d="M6274 11018 c62 -377 59 -1061 -4 -1456 -11 -67 -20 -125 -20 -127 0
-3 36 -5 79 -5 79 0 80 0 84 28 l4 27 2 -28 c0 -18 6 -27 14 -25 8 3 14 36 18
94 l5 89 2 -92 c3 -150 21 -108 20 48 0 77 3 143 6 146 3 4 6 -60 6 -140 0
-100 3 -147 11 -147 8 0 9 54 4 189 -5 130 -4 194 3 207 9 15 11 -8 12 -97 0
-189 10 -299 28 -299 11 0 13 9 9 43 -11 79 -29 422 -25 487 2 44 7 4 16 -126
6 -105 17 -239 24 -298 10 -92 14 -106 30 -106 14 0 17 5 13 23 -2 12 -11 69
-20 127 -57 400 -65 899 -20 1308 8 74 15 140 15 148 0 11 -29 14 -160 14
l-161 0 5 -32z m110 -20 c10 -38 7 -446 -5 -636 -17 -274 -27 -311 -22 -77 3
116 0 287 -6 380 -7 94 -15 212 -18 263 l-6 92 25 0 c18 0 27 -7 32 -22z"/>
<path d="M6206 9339 c-49 -57 -69 -105 -74 -173 -6 -80 12 -152 53 -208 l35
-48 208 0 208 0 26 28 c101 107 102 284 2 400 l-36 42 -193 0 -193 0 -36 -41z
m0 -66 c-25 -72 -27 -145 -7 -224 10 -41 17 -76 15 -78 -2 -2 -16 22 -30 53
-22 49 -26 68 -22 124 2 39 13 87 25 115 26 56 37 62 19 10z m476 -20 c31 -70
31 -183 0 -241 -30 -57 -38 -48 -18 19 20 66 20 159 1 222 -8 26 -12 47 -9 47
3 0 14 -21 26 -47z m-84 14 c2 -12 -3 -17 -17 -17 -12 0 -21 6 -21 13 0 31 32
34 38 4z m32 -117 c0 -24 -26 -38 -42 -22 -16 16 -2 42 22 42 13 0 20 -7 20
-20z m-296 -5 c3 -9 -1 -18 -10 -22 -19 -7 -39 11 -30 26 10 16 33 13 40 -4z
m171 -30 c0 -13 -8 -21 -22 -23 -19 -3 -23 1 -23 23 0 22 4 26 23 23 14 -2 22
-10 22 -23z m143 -61 c2 -15 -3 -23 -17 -27 -25 -6 -44 14 -35 37 9 24 48 16
52 -10z m-100 -1 c-5 -26 -38 -29 -38 -4 0 15 6 21 21 21 14 0 19 -5 17 -17z
m-113 -28 c0 -13 -8 -21 -22 -23 -17 -3 -23 2 -23 16 0 10 3 22 7 26 13 13 38
1 38 -19z m80 -35 c0 -8 -8 -16 -17 -18 -13 -2 -18 3 -18 18 0 15 5 20 18 18
9 -2 17 -10 17 -18z m-170 -15 c0 -13 -8 -21 -22 -23 -19 -3 -23 1 -23 23 0
22 4 26 23 23 14 -2 22 -10 22 -23z m233 -18 c4 -20 -25 -34 -40 -19 -15 15
-1 44 19 40 10 -2 19 -11 21 -21z m-128 -7 c0 -11 -6 -20 -14 -20 -18 0 -29
16 -21 30 11 18 35 11 35 -10z"/>
<path d="M6244 8805 c36 -281 22 -1067 -27 -1520 -2 -19 5 -20 90 -23 78 -2
92 0 87 12 -3 8 -1 23 5 33 9 15 10 13 11 -14 0 -23 5 -33 15 -33 12 0 15 19
17 108 l2 107 5 -104 c4 -71 10 -106 19 -109 9 -3 12 41 14 195 l1 198 9 -194
c5 -107 10 -197 13 -199 16 -16 19 28 13 180 -4 95 -4 232 0 303 l7 130 6
-220 c8 -302 17 -395 37 -395 16 0 15 37 -8 370 -5 74 -9 200 -8 280 l1 145
13 -210 c12 -202 40 -516 50 -562 2 -13 12 -23 21 -23 13 0 15 8 9 58 -49 412
-61 1350 -20 1509 l6 22 -197 3 -197 3 6 -50z m100 -1 c10 -26 7 -484 -5 -667
-18 -293 -24 -282 -24 44 0 188 -5 373 -14 461 -7 81 -11 154 -8 163 8 20 43
19 51 -1z"/>
<path d="M6045 8593 c-184 -24 -528 -97 -590 -125 -13 -6 -22 -15 -18 -21 4
-6 1 -7 -6 -3 -7 5 -28 5 -48 1 -33 -6 -34 -7 -19 -24 9 -10 16 -22 16 -27 0
-5 -4 -4 -8 1 -25 34 -40 37 -94 15 -29 -12 -64 -26 -77 -31 -22 -9 -22 -11
-7 -28 9 -10 16 -21 16 -25 0 -5 -9 2 -19 15 -18 22 -21 23 -58 10 -52 -18
-247 -113 -346 -169 -150 -84 -339 -215 -492 -341 -136 -112 -379 -361 -483
-496 -51 -66 -99 -127 -105 -135 -7 -8 -41 -59 -75 -113 -292 -451 -454 -907
-524 -1467 -17 -136 -17 -581 0 -720 68 -554 245 -1039 545 -1490 309 -466
768 -874 1260 -1122 94 -47 215 -99 237 -101 8 -1 20 -7 25 -13 39 -44 706
-231 705 -197 -1 4 -7 35 -15 68 -37 154 7 362 100 474 15 17 25 31 23 32 -1
0 -14 2 -28 5 -366 61 -783 237 -1100 464 -285 204 -511 438 -706 732 -308
463 -467 1021 -451 1578 8 281 41 486 119 745 180 600 588 1139 1133 1498 141
92 392 218 555 277 146 53 381 113 533 135 l117 18 0 125 0 125 -72 -7 c-238
-23 -586 -118 -846 -230 -204 -88 -562 -295 -562 -326 0 -5 -6 -10 -14 -10
-21 0 -40 -27 -24 -34 7 -3 2 -3 -12 0 -14 4 -22 3 -18 -1 5 -5 -9 -16 -30
-25 -20 -10 -47 -28 -60 -40 -22 -21 -22 -23 -5 -37 16 -13 16 -13 -5 -3 -20
10 -28 8 -47 -10 -13 -12 -21 -28 -19 -35 3 -7 1 -16 -5 -20 -7 -4 -8 0 -4 11
14 37 -26 2 -178 -153 -426 -434 -711 -993 -818 -1603 -64 -363 -60 -755 10
-1110 116 -585 382 -1108 779 -1528 128 -135 104 -119 -42 28 -347 351 -588
746 -742 1215 -365 1118 -69 2344 767 3177 202 201 476 409 687 521 108 57
122 66 115 77 -3 5 3 6 14 3 10 -2 52 11 92 31 232 110 588 215 854 251 66 9
135 18 153 21 l32 5 0 84 0 85 -42 -1 c-24 -1 -56 -4 -73 -6z m-726 -250 c2
-2 2 -5 -1 -8 -2 -3 -18 10 -34 28 l-29 32 30 -25 c17 -14 32 -26 34 -27z
m-209 -43 c-6 -11 -15 -20 -20 -20 -6 0 -2 9 7 20 10 11 19 20 21 20 1 0 -2
-9 -8 -20z m150 -20 c0 -5 -2 -10 -4 -10 -3 0 -8 5 -11 10 -3 6 -1 10 4 10 6
0 11 -4 11 -10z m-70 -60 c0 -11 -4 -20 -9 -20 -5 0 -7 9 -4 20 3 11 7 20 9
20 2 0 4 -9 4 -20z m-79 -22 c18 -20 23 -28 16 -28 -2 0 -14 11 -27 25 -13 14
-20 25 -15 25 4 0 16 -10 26 -22z m-109 -10 c-7 -7 -12 -8 -12 -2 0 14 12 26
19 19 2 -3 -1 -11 -7 -17z m-2 -39 c0 -6 -4 -7 -10 -4 -5 3 -10 11 -10 16 0 6
5 7 10 4 6 -3 10 -11 10 -16z m-93 -85 c-3 -3 -12 -4 -19 -1 -8 3 -5 6 6 6 11
1 17 -2 13 -5z m-487 -624 c0 -5 -10 -10 -22 -9 -22 0 -22 1 -3 9 11 5 21 9
23 9 1 1 2 -3 2 -9z m1030 -4804 c0 -3 -4 -8 -10 -11 -5 -3 -10 -1 -10 4 0 6
5 11 10 11 6 0 10 -2 10 -4z m50 -16 c0 -5 -2 -10 -4 -10 -3 0 -8 5 -11 10 -3
6 -1 10 4 10 6 0 11 -4 11 -10z m-56 -56 c3 -8 2 -12 -4 -9 -6 3 -10 10 -10
16 0 14 7 11 14 -7z m86 -19 c-7 -8 -18 -15 -24 -15 -6 0 -2 7 8 15 25 19 32
19 16 0z m-43 -11 c-3 -3 -12 -4 -19 -1 -8 3 -5 6 6 6 11 1 17 -2 13 -5z
m-137 -11 c0 -5 -12 -13 -26 -20 -26 -12 -26 -12 -9 7 18 20 35 26 35 13z m63
-43 c15 -16 24 -30 20 -30 -5 0 -21 14 -36 30 -16 17 -25 30 -20 30 6 0 22
-13 36 -30z m-143 -30 c-11 -11 -23 -20 -27 -20 -3 0 2 9 12 20 10 11 22 20
27 20 4 0 -1 -9 -12 -20z m-163 -66 c-3 -3 -12 -4 -19 -1 -8 3 -5 6 6 6 11 1
17 -2 13 -5z m109 -61 c-7 -7 -26 7 -26 19 0 6 6 6 15 -2 9 -7 13 -15 11 -17z
m104 17 c0 -5 -4 -10 -10 -10 -5 0 -10 5 -10 10 0 6 5 10 10 10 6 0 10 -4 10
-10z m-200 -33 c0 -2 -14 -16 -32 -33 l-31 -29 23 33 c20 27 40 42 40 29z
m130 -12 c7 -9 11 -17 8 -20 -2 -2 -12 4 -21 15 -9 11 -13 20 -8 20 5 0 14 -7
21 -15z m-205 -25 c3 -6 -1 -7 -9 -4 -18 7 -21 14 -7 14 6 0 13 -4 16 -10z
m142 -42 c-3 -8 -6 -5 -6 6 -1 11 2 17 5 13 3 -3 4 -12 1 -19z"/>
<path d="M6700 8515 l0 -84 33 -5 c17 -3 97 -15 177 -26 178 -27 404 -83 570
-143 69 -25 139 -49 155 -53 17 -4 42 -16 58 -26 37 -27 147 -69 147 -57 0 5
-10 14 -22 19 -13 5 -16 9 -8 9 20 0 48 -21 43 -34 -3 -10 145 -102 238 -148
20 -9 45 -26 56 -36 10 -10 30 -24 42 -31 30 -15 178 -128 261 -199 80 -67
308 -295 376 -376 367 -435 613 -989 698 -1570 30 -204 35 -564 11 -770 -15
-134 -55 -359 -61 -352 -2 2 6 64 17 138 42 270 37 643 -12 934 -138 822 -605
1558 -1286 2028 -45 32 -86 57 -90 57 -4 0 -37 21 -73 46 -49 34 -71 44 -90
39 -17 -4 -21 -3 -11 4 11 7 9 10 -8 16 -11 3 -21 10 -21 14 0 5 -15 14 -32
21 -18 6 -41 16 -50 20 -92 49 -157 80 -167 80 -6 0 -11 -7 -11 -15 0 -8 -4
-15 -10 -15 -5 0 -7 6 -4 14 19 48 -428 189 -731 230 -188 25 -196 26 -202 10
-3 -8 -2 -66 2 -129 l7 -115 36 0 c21 0 91 -9 157 -20 590 -99 1111 -370 1525
-797 250 -256 426 -519 568 -848 77 -178 154 -451 188 -665 25 -164 31 -560 9
-735 -57 -478 -243 -938 -531 -1320 -400 -530 -953 -890 -1593 -1035 -73 -16
-144 -30 -157 -30 -13 0 -24 -2 -24 -4 0 -3 14 -25 30 -50 90 -133 121 -300
85 -455 -9 -35 -13 -66 -11 -68 15 -16 528 118 581 151 11 7 44 21 73 31 28
11 52 23 52 28 0 5 8 6 18 3 14 -5 14 -4 -2 9 -23 17 -14 20 14 5 14 -8 33 -4
77 15 86 38 109 55 92 67 -10 7 -8 8 8 3 26 -7 156 55 301 146 454 283 861
705 1126 1169 285 497 426 1000 443 1575 29 1004 -394 1959 -1159 2620 -115
99 -289 227 -352 260 -22 11 -51 31 -66 45 -32 30 -232 139 -308 169 -29 12
-79 34 -110 50 -129 67 -379 151 -592 199 -138 32 -389 72 -447 72 l-33 0 0
-85z m1115 -219 c19 -8 35 -18 35 -21 0 -5 -70 21 -79 30 -8 9 10 5 44 -9z
m-18 -22 c-3 -3 -12 -4 -19 -1 -8 3 -5 6 6 6 11 1 17 -2 13 -5z m-127 -13 c0
-5 -7 -12 -16 -15 -14 -5 -15 -4 -4 9 14 17 20 19 20 6z m127 -7 c-3 -3 -12
-4 -19 -1 -8 3 -5 6 6 6 11 1 17 -2 13 -5z m-51 -22 c1 -7 0 -8 -3 -2 -2 5 -9
8 -14 4 -5 -3 -9 0 -9 6 0 15 23 7 26 -8z m-46 -12 c0 -11 -4 -20 -9 -20 -5 0
-7 9 -4 20 3 11 7 20 9 20 2 0 4 -9 4 -20z m17 -22 c-3 -8 -6 -5 -6 6 -1 11 2
17 5 13 3 -3 4 -12 1 -19z m224 -16 c-7 -2 -18 1 -23 6 -8 8 -4 9 13 5 13 -4
18 -8 10 -11z m34 -12 c-3 -5 -12 -10 -18 -10 -7 0 -6 4 3 10 19 12 23 12 15
0z m96 -37 c13 -15 12 -15 -8 -4 -24 12 -29 21 -14 21 5 0 15 -7 22 -17z
m-104 -9 c-3 -3 -12 -4 -19 -1 -8 3 -5 6 6 6 11 1 17 -2 13 -5z m127 -60 c9
-24 2 -26 -12 -4 -7 11 -8 20 -3 20 5 0 12 -7 15 -16z m45 -39 c0 -5 -4 -3 -9
5 -5 8 -9 22 -9 30 0 16 17 -16 18 -35z m101 35 c0 -6 10 -15 23 -20 16 -6 18
-9 5 -9 -12 -1 -15 -6 -11 -18 6 -16 5 -16 -11 -4 -13 11 -14 16 -4 22 9 6 8
10 -5 15 -18 7 -23 24 -7 24 6 0 10 -5 10 -10z m-165 -11 c11 -16 1 -19 -13
-3 -7 8 -8 14 -3 14 5 0 13 -5 16 -11z m-500 -9 c3 -5 1 -10 -4 -10 -6 0 -11
5 -11 10 0 6 2 10 4 10 3 0 8 -4 11 -10z m548 -24 c4 -10 1 -13 -9 -9 -15 6
-19 23 -5 23 5 0 11 -7 14 -14z m-38 -5 c3 -5 2 -12 -3 -15 -5 -3 -9 1 -9 9 0
17 3 19 12 6z m192 -33 c-3 -8 -6 -5 -6 6 -1 11 2 17 5 13 3 -3 4 -12 1 -19z
m-127 8 c0 -2 -7 -7 -16 -10 -8 -3 -12 -2 -9 4 6 10 25 14 25 6z m-573 -48
c-3 -8 -6 -5 -6 6 -1 11 2 17 5 13 3 -3 4 -12 1 -19z m207 13 c19 -7 19 -8 -2
-13 -12 -4 -20 -2 -17 2 3 5 -1 11 -7 13 -7 3 -8 5 -3 6 6 0 19 -4 29 -8z
m496 -1 c0 -5 -5 -10 -11 -10 -5 0 -7 5 -4 10 3 6 8 10 11 10 2 0 4 -4 4 -10z
m-445 -28 c-3 -3 -11 0 -18 7 -9 10 -8 11 6 5 10 -3 15 -9 12 -12z m-172 -7
c-3 -9 -8 -14 -10 -11 -3 3 -2 9 2 15 9 16 15 13 8 -4z m142 5 c3 -5 17 -10
30 -10 13 0 26 -4 29 -8 6 -10 -16 -9 -56 3 -16 4 -28 11 -28 16 0 12 17 11
25 -1z m446 -14 c-7 -9 -7 -16 2 -25 9 -10 6 -10 -10 0 -25 15 -31 31 -10 27
6 -2 11 3 9 10 -1 8 2 11 8 7 8 -5 8 -11 1 -19z m-575 -86 c0 -23 -11 -27 -19
-6 -3 8 -1 17 6 20 7 2 12 5 12 5 1 1 1 -8 1 -19z m357 -25 c-12 -8 -28 -12
-36 -9 -8 3 -18 1 -22 -5 -3 -6 -14 -11 -23 -11 -12 1 -10 5 8 15 14 8 32 12
42 9 9 -3 19 0 23 6 3 5 11 10 18 10 6 0 2 -7 -10 -15z m-196 -21 c-3 -3 -12
-4 -19 -1 -8 3 -5 6 6 6 11 1 17 -2 13 -5z m218 -4 c-3 -5 -12 -10 -18 -10 -7
0 -6 4 3 10 19 12 23 12 15 0z m-337 -12 c-2 -8 9 -13 27 -14 44 -1 105 -15
105 -24 0 -5 -8 -6 -19 -3 -10 3 -22 0 -25 -6 -4 -6 -12 -11 -19 -11 -6 0 -2
7 9 15 23 17 11 20 -19 3 -20 -10 -21 -10 -8 5 14 18 2 24 -15 7 -12 -12 -57
17 -49 31 9 13 15 11 13 -3z m117 -16 c-3 -3 -11 0 -18 7 -9 10 -8 11 6 5 10
-3 15 -9 12 -12z m52 -38 c-3 -3 -12 -4 -19 -1 -8 3 -5 6 6 6 11 1 17 -2 13
-5z m63 -5344 c0 -5 -5 -10 -11 -10 -5 0 -7 5 -4 10 3 6 8 10 11 10 2 0 4 -4
4 -10z m60 -10 c0 -5 -8 -10 -18 -10 -10 0 -23 -5 -30 -12 -6 -6 -15 -9 -18
-5 -4 4 8 13 27 21 42 18 39 18 39 6z m-245 -60 c3 -5 2 -10 -4 -10 -5 0 -13
5 -16 10 -3 6 -2 10 4 10 5 0 13 -4 16 -10z m76 -15 c-18 -8 -36 -15 -40 -15
-13 1 45 29 59 29 8 0 0 -6 -19 -14z m-111 -3 c0 -4 -9 -13 -20 -20 -23 -14
-26 -8 -7 13 13 16 27 19 27 7z m-57 -16 c4 -10 1 -13 -8 -9 -8 3 -12 9 -9 14
7 12 11 11 17 -5z m114 -2 c-3 -3 -12 -4 -19 -1 -8 3 -5 6 6 6 11 1 17 -2 13
-5z m-27 -14 c8 -5 11 -10 5 -10 -5 0 -17 5 -25 10 -8 5 -10 10 -5 10 6 0 17
-5 25 -10z m-87 -27 c-7 -2 -21 -2 -30 0 -10 3 -4 5 12 5 17 0 24 -2 18 -5z"/>
<path d="M6165 7156 c-22 -23 -51 -64 -65 -91 -22 -44 -25 -63 -25 -155 0 -91
3 -112 24 -155 14 -27 40 -66 59 -87 l34 -38 243 0 244 0 35 43 c77 94 104
219 72 331 -26 89 -82 167 -133 187 -14 5 -121 9 -237 9 l-211 -1 -40 -43z
m-18 -83 c-28 -80 -28 -224 1 -308 11 -33 19 -61 17 -63 -2 -2 -18 24 -35 59
-53 105 -50 212 11 331 28 55 31 47 6 -19z m599 -79 c24 -89 16 -163 -26 -246
-19 -37 -35 -66 -37 -64 -2 2 4 23 13 47 42 118 42 247 -1 364 -4 11 2 7 13
-9 12 -16 28 -58 38 -92z m-121 71 c0 -30 -39 -27 -43 3 -3 20 0 23 20 20 15
-2 23 -10 23 -23z m40 -135 c9 -27 -1 -40 -31 -40 -18 0 -24 5 -24 23 0 13 3
27 7 30 13 14 42 6 48 -13z m-364 -34 c-16 -19 -41 -10 -41 14 0 24 21 31 39
14 11 -10 12 -16 2 -28z m212 -6 c6 -25 -16 -44 -43 -35 -21 7 -24 14 -14 39
9 23 51 20 57 -4z m175 -82 c2 -19 -2 -28 -18 -33 -37 -12 -64 27 -38 53 21
21 53 10 56 -20z m-123 -3 c0 -23 -34 -33 -46 -14 -10 17 9 41 30 37 9 -2 16
-12 16 -23z m-131 -20 c9 -24 -4 -45 -29 -45 -25 0 -38 21 -29 45 4 8 16 15
29 15 13 0 25 -7 29 -15z m94 -49 c4 -21 -14 -37 -35 -29 -14 5 -18 35 -6 47
12 12 38 1 41 -18z m-208 0 c0 -2 3 -11 6 -19 9 -23 -24 -49 -47 -37 -19 10
-26 40 -12 53 7 8 53 10 53 3z m278 -44 c4 -30 -26 -42 -44 -17 -10 14 -11 22
-2 32 16 20 42 12 46 -15z m-150 -6 c4 -21 -14 -37 -35 -29 -14 5 -18 35 -6
47 12 12 38 1 41 -18z"/>
<path d="M6204 6528 c19 -127 27 -274 33 -548 7 -377 -9 -671 -54 -952 l-6
-38 126 0 126 0 4 53 3 52 2 -57 c2 -46 5 -56 17 -52 12 5 15 24 15 83 0 42 5
83 10 91 7 10 10 -14 10 -77 0 -55 4 -93 10 -93 6 0 10 64 10 173 0 115 4 167
10 157 5 -8 10 -86 10 -172 0 -126 3 -158 13 -158 11 0 13 55 11 303 -2 267
-1 282 6 132 22 -452 20 -435 42 -435 18 0 19 5 14 53 -19 167 -43 716 -31
705 4 -4 11 -87 16 -185 8 -165 31 -430 45 -530 5 -34 10 -43 26 -43 16 0 19
5 14 28 -55 278 -85 757 -67 1082 6 115 18 259 26 321 8 62 15 121 15 131 0
17 -15 18 -231 18 l-231 0 6 -42z m114 -263 c3 -230 -13 -627 -27 -652 -3 -6
-5 95 -3 225 2 157 -2 307 -13 444 -9 114 -13 213 -10 218 4 6 17 10 28 8 22
-3 22 -6 25 -243z"/>
<path d="M3048 6102 c-31 -53 -104 -180 -163 -282 -59 -102 -194 -336 -300
-520 -207 -360 -269 -466 -445 -770 -62 -107 -174 -301 -248 -430 -74 -129
-174 -303 -223 -387 -49 -83 -97 -167 -107 -185 -33 -58 -253 -441 -287 -498
-18 -30 -50 -86 -73 -125 -22 -38 -115 -199 -206 -357 -264 -457 -346 -600
-346 -604 0 -2 209 -4 464 -4 l464 0 -4 22 -5 23 12 -22 c11 -21 19 -23 95
-23 70 0 83 3 87 18 4 16 5 16 6 0 1 -16 17 -17 166 -16 91 0 165 4 165 9 0 5
8 9 18 9 14 0 15 -2 2 -10 -10 -7 6 -10 56 -10 41 0 75 5 82 12 9 9 12 9 12 0
0 -9 300 -12 1321 -12 1053 0 1319 3 1313 13 -6 10 -4 10 7 0 10 -10 90 -13
333 -13 l321 1 -113 35 c-135 41 -322 109 -374 135 -42 21 -73 25 -62 7 4 -7
3 -8 -5 -4 -6 4 -9 11 -7 15 3 4 -55 37 -127 74 -73 37 -186 101 -252 142
l-120 75 -1483 0 -1482 0 -79 -39 c-43 -22 -122 -65 -175 -95 -53 -31 -99 -56
-102 -56 -7 0 38 37 152 127 170 133 196 162 292 331 73 127 228 397 332 577
179 310 284 491 337 585 36 63 87 151 113 195 26 44 101 172 165 285 65 113
141 246 170 295 29 50 95 162 146 250 l94 160 1 240 c2 316 39 623 103 850 11
38 18 71 17 72 -1 2 -28 -41 -58 -95z m-154 -634 c0 -35 -9 -61 -36 -105 -19
-32 -113 -186 -208 -343 -193 -318 -308 -506 -655 -1075 -131 -214 -321 -527
-423 -695 -101 -168 -189 -309 -195 -315 -16 -16 70 142 211 385 72 124 156
270 187 325 32 55 74 129 94 165 21 36 140 243 265 460 125 217 289 501 363
630 167 289 296 509 336 573 39 62 62 60 61 -5z m-947 -3104 c-3 -3 -12 -4
-19 -1 -8 3 -5 6 6 6 11 1 17 -2 13 -5z m-34 -21 c-7 -2 -19 -2 -25 0 -7 3 -2
5 12 5 14 0 19 -2 13 -5z m144 -9 c-3 -3 -12 -4 -19 -1 -8 3 -5 6 6 6 11 1 17
-2 13 -5z m-212 -14 c3 -5 2 -10 -4 -10 -5 0 -13 5 -16 10 -3 6 -2 10 4 10 5
0 13 -4 16 -10z m93 -17 c-10 -2 -28 -2 -40 0 -13 2 -5 4 17 4 22 1 32 -1 23
-4z m35 -20 c-7 -2 -21 -2 -30 0 -10 3 -4 5 12 5 17 0 24 -2 18 -5z m117 -3
c8 -5 11 -10 5 -10 -5 0 -17 5 -25 10 -8 5 -10 10 -5 10 6 0 17 -5 25 -10z
m-365 -10 c3 -6 -1 -7 -9 -4 -18 7 -21 14 -7 14 6 0 13 -4 16 -10z m353 -17
c19 -8 32 -16 30 -19 -3 -2 -29 7 -59 21 -55 26 -34 24 29 -2z m82 17 c0 -5
-5 -10 -11 -10 -5 0 -7 5 -4 10 3 6 8 10 11 10 2 0 4 -4 4 -10z m-370 -20 c-8
-5 -19 -10 -25 -10 -5 0 -3 5 5 10 8 5 20 10 25 10 6 0 3 -5 -5 -10z m402 -32
c-7 -7 -12 -8 -12 -2 0 6 3 14 7 17 3 4 9 5 12 2 2 -3 -1 -11 -7 -17z m-552
-2 c0 -3 -4 -8 -10 -11 -5 -3 -10 -1 -10 4 0 6 5 11 10 11 6 0 10 -2 10 -4z
m310 -20 c0 -2 -9 -6 -20 -9 -11 -3 -18 -1 -14 4 5 9 34 13 34 5z m-349 -29
c-10 -9 -11 -8 -5 6 3 10 9 15 12 12 3 -3 0 -11 -7 -18z m394 -15 c-3 -3 -11
0 -18 7 -9 10 -8 11 6 5 10 -3 15 -9 12 -12z m-175 -16 c-14 -13 -27 -21 -30
-19 -5 5 38 43 48 43 4 0 -5 -11 -18 -24z m427 -8 c-3 -8 -6 -5 -6 6 -1 11 2
17 5 13 3 -3 4 -12 1 -19z m-397 -2 c0 -3 -4 -8 -10 -11 -5 -3 -10 -1 -10 4 0
6 5 11 10 11 6 0 10 -2 10 -4z m113 -3 c-7 -2 -21 -2 -30 0 -10 3 -4 5 12 5
17 0 24 -2 18 -5z m-359 -48 c-4 -8 -8 -15 -10 -15 -2 0 -4 7 -4 15 0 8 4 15
10 15 5 0 7 -7 4 -15z m486 -5 c0 -11 -4 -20 -9 -20 -5 0 -7 9 -4 20 3 11 7
20 9 20 2 0 4 -9 4 -20z m2955 10 c3 -5 1 -10 -4 -10 -6 0 -11 5 -11 10 0 6 2
10 4 10 3 0 8 -4 11 -10z m-3428 -42 c-3 -8 -6 -5 -6 6 -1 11 2 17 5 13 3 -3
4 -12 1 -19z m140 0 c-3 -8 -6 -5 -6 6 -1 11 2 17 5 13 3 -3 4 -12 1 -19z
m383 -13 c0 -5 -5 -3 -10 5 -5 8 -10 20 -10 25 0 6 5 3 10 -5 5 -8 10 -19 10
-25z m137 13 c-3 -8 -6 -5 -6 6 -1 11 2 17 5 13 3 -3 4 -12 1 -19z m2581 2
c-7 -10 -14 -18 -15 -16 -6 6 9 36 18 36 5 0 4 -9 -3 -20z m-3051 -37 c-3 -10
-5 -4 -5 12 0 17 2 24 5 18 2 -7 2 -21 0 -30z m303 27 c0 -5 -2 -10 -4 -10 -3
0 -8 5 -11 10 -3 6 -1 10 4 10 6 0 11 -4 11 -10z m2850 -10 c0 -5 -2 -10 -4
-10 -3 0 -8 5 -11 10 -3 6 -1 10 4 10 6 0 11 -4 11 -10z m-3333 -32 c-3 -8 -6
-5 -6 6 -1 11 2 17 5 13 3 -3 4 -12 1 -19z m3187 8 c-10 -8 -21 -12 -24 -10
-5 6 21 24 34 24 6 0 1 -6 -10 -14z m76 -29 c0 -6 -9 -1 -20 11 -11 12 -20 24
-20 28 0 4 9 -1 20 -11 11 -10 20 -23 20 -28z m95 33 c3 -5 1 -10 -4 -10 -6 0
-11 5 -11 10 0 6 2 10 4 10 3 0 8 -4 11 -10z m-3198 -42 c-3 -8 -6 -5 -6 6 -1
11 2 17 5 13 3 -3 4 -12 1 -19z m158 12 c3 -5 1 -10 -4 -10 -6 0 -11 5 -11 10
0 6 2 10 4 10 3 0 8 -4 11 -10z m45 0 c0 -5 -4 -10 -10 -10 -5 0 -10 5 -10 10
0 6 5 10 10 10 6 0 10 -4 10 -10z m260 -16 c0 -2 -7 -4 -15 -4 -8 0 -15 4 -15
10 0 5 7 7 15 4 8 -4 15 -8 15 -10z"/>
<path d="M9754 6187 c13 -39 46 -176 65 -277 38 -203 53 -376 55 -630 l1 -245
36 -60 c32 -51 133 -225 201 -345 11 -19 80 -138 153 -265 73 -126 166 -288
207 -360 41 -71 110 -191 153 -265 107 -185 237 -409 327 -565 41 -71 137
-238 213 -370 75 -132 149 -257 163 -278 16 -24 86 -80 188 -153 90 -63 166
-119 169 -124 6 -10 -47 13 -257 114 l-118 56 -1478 0 -1478 0 -92 -58 c-50
-32 -104 -69 -119 -82 -16 -13 -30 -24 -33 -23 -12 2 -29 -10 -25 -17 3 -5 -4
-6 -14 -3 -11 3 -40 -7 -66 -23 -43 -25 -46 -29 -30 -40 10 -8 22 -11 28 -7 6
3 7 1 3 -5 -5 -9 -14 -8 -33 2 -24 12 -33 11 -92 -16 -36 -17 -89 -38 -118
-48 -92 -33 -122 -50 -116 -68 4 -13 3 -14 -5 -4 -11 16 -61 6 -69 -15 -4 -11
-8 -11 -13 -3 -6 10 -112 -17 -255 -65 -5 -2 94 -4 222 -4 212 -1 232 0 236
17 4 16 5 16 6 0 1 -16 17 -17 166 -16 91 0 165 4 165 9 0 5 8 9 18 9 14 0 15
-2 2 -10 -10 -7 6 -10 56 -10 41 0 75 5 82 12 9 9 12 9 12 0 0 -9 300 -12
1321 -12 1053 0 1319 3 1313 13 -6 9 -4 9 7 -1 10 -9 155 -12 656 -12 354 0
643 2 643 4 0 4 -373 652 -524 911 -29 50 -90 155 -136 235 -45 80 -109 190
-141 245 -31 55 -249 433 -484 840 -235 407 -441 765 -459 795 -18 30 -183
316 -366 635 -312 542 -363 629 -346 582z m1696 -3552 c-7 -9 -15 -13 -17 -11
-7 7 7 26 19 26 6 0 6 -6 -2 -15z m50 -15 c0 -5 -2 -10 -4 -10 -3 0 -8 5 -11
10 -3 6 -1 10 4 10 6 0 11 -4 11 -10z m-56 -55 c3 -8 1 -15 -4 -15 -6 0 -10 7
-10 15 0 8 2 15 4 15 2 0 6 -7 10 -15z m96 -10 c-7 -8 -16 -15 -21 -15 -5 0
-1 8 9 18 20 22 31 19 12 -3z m-140 -55 c8 -5 11 -10 5 -10 -5 0 -17 5 -25 10
-8 5 -10 10 -5 10 6 0 17 -5 25 -10z m31 -37 c13 -15 12 -15 -8 -4 -24 12 -29
21 -14 21 5 0 15 -7 22 -17z m-324 -79 c-3 -3 -12 -4 -19 -1 -8 3 -5 6 6 6 11
1 17 -2 13 -5z m153 -108 c0 -11 -70 61 -70 72 0 3 16 -9 35 -28 19 -19 35
-39 35 -44z m60 64 c0 -5 -2 -10 -4 -10 -3 0 -8 5 -11 10 -3 6 -1 10 4 10 6 0
11 -4 11 -10z m-210 -44 c0 -3 -4 -8 -10 -11 -5 -3 -10 -1 -10 4 0 6 5 11 10
11 6 0 10 -2 10 -4z m-70 -26 c0 -5 -2 -10 -4 -10 -3 0 -8 5 -11 10 -3 6 -1
10 4 10 6 0 11 -4 11 -10z m147 -57 c-3 -10 -5 -4 -5 12 0 17 2 24 5 18 2 -7
2 -21 0 -30z m-2995 5 c-7 -7 -12 -8 -12 -2 0 14 12 26 19 19 2 -3 -1 -11 -7
-17z m2918 -13 c20 -24 6 -28 -15 -5 -10 11 -13 20 -8 20 6 0 16 -7 23 -15z
m51 -28 c-10 -9 -11 -8 -5 6 3 10 9 15 12 12 3 -3 0 -11 -7 -18z m-3221 -32
c-14 -8 -19 -14 -11 -18 8 -4 8 -5 -1 -3 -18 4 -22 26 -4 26 9 0 16 5 16 11 0
5 5 7 11 3 8 -4 4 -11 -11 -19z m3060 21 c0 -3 -4 -8 -10 -11 -5 -3 -10 -1
-10 4 0 6 5 11 10 11 6 0 10 -2 10 -4z m-2753 -38 c-3 -8 -6 -5 -6 6 -1 11 2
17 5 13 3 -3 4 -12 1 -19z m-347 -8 c8 -5 11 -10 5 -10 -5 0 -17 5 -25 10 -8
5 -10 10 -5 10 6 0 17 -5 25 -10z m-32 -18 c2 -7 -1 -12 -8 -12 -6 0 -9 4 -6
9 4 5 1 12 -4 14 -6 3 -5 4 2 3 6 -1 14 -8 16 -14z m222 -32 c0 -11 -4 -20 -9
-20 -5 0 -7 9 -4 20 3 11 7 20 9 20 2 0 4 -9 4 -20z m-333 -32 c-3 -8 -6 -5
-6 6 -1 11 2 17 5 13 3 -3 4 -12 1 -19z m383 -13 c0 -5 -5 -3 -10 5 -5 8 -10
20 -10 25 0 6 5 3 10 -5 5 -8 10 -19 10 -25z m137 13 c-3 -8 -6 -5 -6 6 -1 11
2 17 5 13 3 -3 4 -12 1 -19z m2581 2 c-7 -10 -14 -18 -15 -16 -6 6 9 36 18 36
5 0 4 -9 -3 -20z m-3068 6 c0 -3 -4 -8 -10 -11 -5 -3 -10 -1 -10 4 0 6 5 11
10 11 6 0 10 -2 10 -4z m320 -16 c0 -5 -2 -10 -4 -10 -3 0 -8 5 -11 10 -3 6
-1 10 4 10 6 0 11 -4 11 -10z m-303 -32 c-3 -7 -5 -2 -5 12 0 14 2 19 5 13 2
-7 2 -19 0 -25z m3153 22 c0 -5 -2 -10 -4 -10 -3 0 -8 5 -11 10 -3 6 -1 10 4
10 6 0 11 -4 11 -10z m-3360 -15 c0 -8 -2 -15 -4 -15 -2 0 -6 7 -10 15 -3 8
-1 15 4 15 6 0 10 -7 10 -15z m3214 -9 c-10 -8 -21 -12 -24 -10 -5 6 21 24 34
24 6 0 1 -6 -10 -14z m76 -29 c0 -6 -9 -1 -20 11 -11 12 -20 24 -20 28 0 4 9
-1 20 -11 11 -10 20 -23 20 -28z m95 33 c3 -5 1 -10 -4 -10 -6 0 -11 5 -11 10
0 6 2 10 4 10 3 0 8 -4 11 -10z m-3198 -42 c-3 -8 -6 -5 -6 6 -1 11 2 17 5 13
3 -3 4 -12 1 -19z m158 12 c3 -5 1 -10 -4 -10 -6 0 -11 5 -11 10 0 6 2 10 4
10 3 0 8 -4 11 -10z m45 0 c0 -5 -4 -10 -10 -10 -5 0 -10 5 -10 10 0 6 5 10
10 10 6 0 10 -4 10 -10z m260 -16 c0 -2 -7 -4 -15 -4 -8 0 -15 4 -15 10 0 5 7
7 15 4 8 -4 15 -8 15 -10z"/>
<path d="M6119 4873 c-23 -27 -56 -77 -73 -113 -29 -60 -31 -73 -31 -170 0
-100 2 -108 37 -180 20 -41 50 -90 68 -107 l31 -33 284 0 283 0 34 40 c140
163 139 398 -3 563 l-41 47 -273 0 -273 0 -43 -47z m661 -131 c39 -101 45
-162 27 -237 -14 -54 -75 -180 -84 -172 -1 2 9 34 24 72 46 127 41 298 -12
410 l-15 30 20 -23 c10 -13 29 -49 40 -80z m-656 59 c-43 -87 -44 -280 0 -396
31 -83 10 -64 -36 33 -35 73 -46 160 -29 229 15 58 61 163 72 163 4 0 1 -13
-7 -29z m540 -16 c3 -8 -2 -22 -11 -30 -14 -15 -18 -15 -31 -1 -8 8 -12 22 -9
30 8 20 43 21 51 1z m36 -160 c20 -25 8 -50 -25 -50 -21 0 -31 5 -33 18 -4 21
14 47 33 47 7 0 18 -7 25 -15z m-403 -21 c3 -8 -2 -23 -11 -32 -15 -15 -17
-15 -32 0 -21 21 -11 48 16 48 11 0 23 -7 27 -16z m224 -14 c23 -13 24 -33 4
-54 -16 -15 -44 -11 -57 8 -11 16 -10 23 8 40 18 19 20 19 45 6z m205 -91 c24
-27 8 -54 -32 -54 -23 0 -30 5 -32 24 -3 15 3 30 14 38 24 17 28 17 50 -8z
m-132 -15 c7 -19 -10 -44 -31 -44 -17 0 -27 24 -19 45 7 20 42 19 50 -1z
m-155 -33 c13 -24 -8 -55 -34 -50 -28 6 -42 34 -26 53 18 22 48 20 60 -3z
m106 -61 c0 -18 -6 -26 -21 -28 -26 -4 -40 24 -23 45 18 21 44 11 44 -17z
m-229 -14 c8 -32 -2 -46 -31 -46 -31 0 -52 35 -34 56 19 23 58 18 65 -10z
m318 -21 c9 -25 -5 -45 -30 -45 -14 0 -27 7 -30 15 -10 25 4 45 30 45 13 0 26
-7 30 -15z m-176 -23 c4 -28 -24 -40 -45 -19 -21 21 -9 49 19 45 15 -2 24 -11
26 -26z"/>
<path d="M6164 4196 c41 -163 55 -897 23 -1212 -10 -94 -24 -211 -32 -260 -8
-49 -15 -95 -15 -101 0 -10 38 -13 159 -13 l160 0 4 48 3 47 2 -47 c2 -35 6
-48 17 -48 8 0 16 1 16 3 1 1 5 52 9 112 l7 110 1 -112 c2 -97 4 -113 18 -113
15 0 16 12 11 108 -4 59 -3 148 2 197 8 84 8 78 10 -85 1 -175 6 -220 22 -220
5 0 6 128 2 288 -3 158 -3 284 1 281 6 -5 8 -55 21 -364 7 -168 13 -205 31
-205 17 0 17 -11 -1 240 -8 113 -14 282 -13 375 l1 170 8 -160 c7 -151 31
-444 47 -565 6 -48 10 -55 30 -58 19 -3 23 0 18 15 -29 97 -63 388 -78 655
-14 250 -1 552 32 778 11 74 20 141 20 148 0 9 -61 12 -271 12 l-271 0 6 -24z
m130 -52 c10 -26 7 -483 -5 -667 -17 -287 -24 -274 -24 49 0 180 -6 373 -14
461 -7 83 -10 156 -7 162 11 16 43 13 50 -5z"/>
<path d="M6082 2505 c-105 -114 -148 -264 -119 -408 18 -90 55 -167 108 -230
l41 -47 318 0 318 0 46 51 c85 94 122 207 114 349 -5 74 -11 99 -42 165 -21
43 -58 98 -85 126 l-47 49 -301 0 -301 0 -50 -55z m-10 -105 c-23 -65 -26 -92
-26 -200 -1 -129 -1 -125 58 -285 l8 -20 -17 20 c-9 11 -33 53 -53 94 -61 124
-57 250 16 399 19 39 36 71 38 70 1 -2 -10 -37 -24 -78z m759 -70 c18 -50 23
-87 24 -160 0 -91 -2 -98 -38 -169 -40 -79 -76 -134 -62 -96 60 159 59 155 58
290 0 116 -3 137 -27 198 -14 37 -26 71 -26 75 0 18 50 -79 71 -138z m-146 60
c0 -20 -5 -25 -25 -25 -20 0 -26 6 -28 28 -3 26 -1 28 25 25 22 -2 28 -8 28
-28z m45 -165 c26 -32 -13 -81 -47 -59 -35 22 -23 74 17 74 10 0 23 -7 30 -15z
m-462 -22 c13 -26 4 -43 -24 -43 -26 0 -40 20 -30 45 8 21 43 19 54 -2z m270
-49 c3 -34 -16 -49 -48 -39 -44 14 -28 78 18 73 22 -2 28 -9 30 -34z m222 -69
c15 -19 6 -61 -16 -69 -27 -10 -53 3 -60 30 -8 30 11 54 41 54 12 0 28 -7 35
-15z m-162 -7 c30 -30 -1 -73 -36 -51 -23 14 -25 29 -7 47 20 19 27 20 43 4z
m-168 -43 c26 -32 -13 -81 -47 -59 -35 22 -23 74 17 74 10 0 23 -7 30 -15z
m125 -75 c0 -18 -6 -26 -23 -28 -13 -2 -25 3 -28 12 -10 26 4 48 28 44 17 -2
23 -10 23 -28z m-259 -16 c8 -30 -11 -54 -42 -54 -30 0 -49 33 -34 59 19 37
66 34 76 -5z m355 -20 c17 -21 0 -49 -31 -49 -31 0 -48 28 -31 49 8 9 21 16
31 16 10 0 23 -7 31 -16z m-198 -15 c23 -37 -25 -68 -52 -35 -9 11 -10 20 -1
36 13 24 38 23 53 -1z"/>
<path d="M6120 1743 c0 -15 -5 -192 -11 -395 -11 -363 -11 -368 10 -401 11
-18 38 -43 61 -56 47 -26 47 -25 25 -251 -16 -164 -13 -178 56 -212 48 -25
294 -26 346 -2 64 31 68 46 54 213 -6 80 -14 165 -17 187 -6 40 -5 42 37 65
81 46 85 56 80 257 -9 450 -16 615 -27 619 -13 4 -23 -203 -25 -471 0 -94 -4
-193 -8 -221 -6 -44 -9 36 -23 628 -1 32 -4 60 -8 62 -8 5 -19 -281 -21 -509
-2 -246 -16 -113 -23 213 -4 162 -8 297 -11 299 -2 3 -10 2 -18 -1 -11 -4 -14
-56 -16 -263 -1 -143 -7 -263 -12 -268 -5 -6 -9 51 -9 150 0 87 -3 210 -7 272
l-6 112 -29 0 -28 0 0 -192 c0 -108 -5 -200 -10 -208 -6 -10 -10 46 -11 168
-1 100 -3 187 -4 192 -1 6 -3 17 -4 25 -1 11 -14 15 -51 15 l-50 0 0 -134 c0
-79 -4 -137 -10 -141 -6 -4 -10 43 -10 134 l0 141 -110 0 -110 0 0 -27z m505
-1199 c-10 -55 -35 -68 -138 -70 -87 -3 -89 -2 -37 7 124 22 150 56 149 199 0
119 1 119 18 0 8 -58 11 -119 8 -136z"/>
</g>
</svg>
