<?xml version="1.0" standalone="no"?>
<!DOCTYPE svg PUBLIC "-//W3C//DTD SVG 20010904//EN"
 "http://www.w3.org/TR/2001/REC-SVG-20010904/DTD/svg10.dtd">
<svg version="1.0" xmlns="http://www.w3.org/2000/svg"
 width="550.000000pt" height="500.000000pt" viewBox="0 0 550.000000 500.000000"
 preserveAspectRatio="xMidYMid meet">

<g transform="translate(0.000000,500.000000) scale(0.100000,-0.100000)"
fill="#000000" stroke="none">
<path d="M2135 4881 c-11 -10 -67 -39 -125 -64 -95 -40 -116 -45 -215 -51
-107 -7 -113 -6 -227 28 -133 41 -197 45 -343 21 -81 -13 -191 -47 -249 -77
-11 -6 -44 -30 -72 -54 -102 -86 -149 -268 -103 -402 27 -79 62 -125 118 -156
58 -31 92 -33 108 -7 11 18 7 24 -44 58 -87 58 -97 78 -101 188 -2 55 1 101 7
113 6 11 38 37 72 57 l61 37 111 -5 c62 -3 137 -12 167 -22 31 -9 117 -20 195
-25 127 -7 149 -6 240 14 55 13 134 39 175 59 41 19 94 41 117 48 34 10 53 27
113 101 60 75 71 94 68 121 -2 26 -8 33 -28 35 -14 2 -33 -5 -45 -17z"/>
<path d="M3620 4838 c-19 -23 -84 -84 -145 -136 -93 -80 -133 -106 -260 -169
-117 -59 -161 -76 -206 -80 l-57 -6 -119 86 c-65 47 -162 127 -217 176 -81 75
-104 91 -130 91 -62 0 -469 -263 -671 -433 -119 -100 -117 -96 -206 -302 -47
-109 -55 -138 -82 -306 l-30 -186 -96 -18 c-198 -36 -338 -140 -426 -316 -40
-78 -45 -96 -45 -154 0 -50 4 -67 16 -72 24 -9 62 34 69 81 14 81 55 129 144
164 76 31 200 31 255 -1 64 -36 64 -41 65 -503 1 -528 -12 -626 -96 -716 -19
-19 -23 -32 -18 -50 12 -39 26 -48 75 -48 48 0 49 0 145 102 53 57 105 119
115 138 45 88 82 219 105 380 21 148 25 226 35 745 10 524 14 597 36 754 18
128 31 186 49 221 32 63 132 188 182 228 35 27 49 32 96 32 52 0 63 -5 173
-75 126 -81 217 -171 228 -227 3 -17 6 -200 6 -408 l0 -377 -23 -21 c-46 -44
-225 -24 -288 32 l-26 23 -5 384 c-3 211 -9 392 -13 402 -11 26 -54 22 -64 -6
-5 -13 -14 -410 -20 -883 -6 -472 -14 -1004 -17 -1181 l-6 -321 -52 -43 c-120
-98 -234 -119 -446 -80 -244 45 -509 23 -669 -56 -72 -36 -75 -39 -146 -147
l-73 -111 -7 -92 c-8 -110 1 -136 93 -259 51 -69 71 -87 140 -127 72 -42 88
-47 141 -47 79 0 111 15 111 51 0 26 -5 30 -52 43 -29 9 -86 23 -126 32 -82
18 -119 44 -158 109 -24 41 -25 49 -18 132 7 86 8 89 52 138 24 28 58 55 76
62 40 15 243 16 417 3 110 -9 151 -17 232 -45 169 -60 192 -52 307 110 46 65
125 162 177 217 66 72 93 107 93 125 0 14 7 280 16 592 l15 566 25 26 c22 23
39 28 119 38 101 13 117 9 174 -39 l24 -21 5 -469 c3 -338 1 -482 -7 -517 -19
-77 -52 -156 -78 -184 -35 -38 -40 -90 -13 -127 17 -23 37 -34 88 -47 99 -26
264 -136 371 -247 56 -60 91 -88 106 -88 52 0 121 43 205 129 90 92 518 431
544 431 22 0 32 -25 45 -110 28 -184 161 -340 290 -340 45 0 49 3 126 81 44
44 114 110 156 145 79 67 94 87 103 143 6 33 6 33 -25 27 -17 -3 -43 -15 -58
-26 -16 -10 -46 -22 -68 -26 -37 -6 -42 -3 -81 37 -30 32 -43 55 -48 87 -3 23
-1 349 5 725 5 375 8 880 4 1123 l-6 440 51 45 c70 59 71 87 4 113 -120 47
-314 153 -397 216 -109 83 -141 116 -189 198 -47 78 -73 82 -126 20z m-107
-350 c168 -105 293 -191 314 -217 23 -26 23 -29 23 -352 l0 -325 -30 -41 c-26
-35 -39 -43 -95 -57 -86 -22 -136 -20 -198 6 -88 36 -81 3 -92 428 -10 373
-11 380 -33 402 -22 22 -22 22 -42 3 -22 -22 -23 161 10 -1765 5 -333 13 -662
16 -732 l6 -126 -32 -7 c-29 -6 -45 1 -161 80 -70 48 -137 97 -148 109 -40 42
-42 100 -35 1256 l7 1105 48 69 c49 69 88 101 219 178 90 53 119 51 223 -14z
m335 -1133 c2 -38 0 -80 -3 -94 l-6 -24 -119 6 c-95 4 -134 1 -187 -12 -38
-10 -74 -16 -80 -14 -16 6 -17 117 -2 160 l10 31 132 10 c73 5 159 9 192 8
l60 -1 3 -70z m-1262 -15 c32 -12 48 -116 22 -138 -20 -15 -331 -41 -340 -28
-9 13 -10 148 -2 171 6 15 21 16 153 10 80 -4 155 -11 167 -15z m1156 -161
c48 -10 61 -18 83 -49 l25 -36 -2 -529 -3 -529 -65 -53 c-137 -112 -231 -173
-265 -173 -19 0 -35 6 -38 14 -3 8 -9 296 -13 640 l-7 625 24 21 c40 34 162
91 184 86 11 -2 46 -10 77 -17z"/>
</g>
</svg>
